<?xml version="1.0" encoding="utf-8"?>
<!-- Generator: Adobe Illustrator 23.0.1, SVG Export Plug-In . SVG Version: 6.00 Build 0)  -->
<svg version="1.1" id="d3ac6cc7-fb73-4cb9-a27c-caab18aaef9d"
	 xmlns="http://www.w3.org/2000/svg" xmlns:xlink="http://www.w3.org/1999/xlink" x="0px" y="0px" viewBox="0 0 1000.8 837"
	 style="enable-background:new 0 0 1000.8 837;" xml:space="preserve">
<style type="text/css">
	.st0{opacity:0.1;fill:#8FCAE7;enable-background:new    ;}
	.st1{fill:#8FCAE7;}
	.st2{opacity:0.1;enable-background:new    ;}
	.st3{fill:#FFD037;}
	.st4{fill:#A8A8A8;}
	.st5{opacity:0.2;enable-background:new    ;}
	.st6{opacity:3.000000e-02;enable-background:new    ;}
	.st7{opacity:0.15;fill:#FFFFFF;enable-background:new    ;}
	.st8{fill:url(#SVGID_1_);}
	.st9{fill:#53517C;}
	.st10{fill:#B3D7F7;}
	.st11{fill:#C37871;}
	.st12{fill:#E6EAED;}
	.st13{fill:#4B3E3C;}
	.st14{opacity:0.1;}
	.st15{opacity:0.25;enable-background:new    ;}
	.st16{opacity:0.2;fill:#FFFFFF;enable-background:new    ;}
	.st17{opacity:0.15;enable-background:new    ;}
	.st18{fill:#3ACC6C;}
	.st19{fill:#FF748E;}
	.st20{fill:#5E5A6B;}
</style>
<title>pie chart</title>
<path class="st0" d="M320,31.3c30.8-27.4,79.1-33,123.1-30.8C581.2,7.3,706,74,813.8,149.4c39,27.3,77.5,56.7,102.8,94.4
	c51.6,76.6,36.3,182.6-35.5,245.7c-24.4,21.5-54,37.9-84.4,52.5c-54,25.9-112.3,46.7-173.6,52.7c-43.7,4.2-88,0.8-131.5-5.1
	c-121.4-16.5-240.6-52.9-340.6-115.2C107.4,447,66,413,48,368.8s-6.5-100.2,38.2-126.4c18.5-10.8,40.6-15.7,62.3-20.3
	c31.9-6.8,64.3-13.4,93.1-27.1c29.7-14.2,64.9-41.6,59-73C294.3,88.3,289.2,58.7,320,31.3z"/>
<ellipse class="st0" cx="967.4" cy="831.3" rx="33.4" ry="5.7"/>
<ellipse class="st0" cx="393.4" cy="761.7" rx="148.7" ry="26.3"/>
<ellipse class="st0" cx="792.8" cy="756.5" rx="75.6" ry="16.7"/>
<path class="st1" d="M974.3,760c0,0,6.1,8-2.8,20.1s-16.4,22.3-13.4,29.9c0,0,13.5-22.5,24.5-22.8S986.4,773.5,974.3,760z"/>
<path class="st2" d="M974.3,760c0.5,0.8,1,1.6,1.3,2.5c10.7,12.6,16.5,24.4,6.1,24.7c-9.6,0.3-21.2,17.5-23.9,21.8
	c0.1,0.3,0.2,0.7,0.3,1c0,0,13.5-22.5,24.5-22.8S986.4,773.5,974.3,760z"/>
<path class="st3" d="M985.7,770.2c0,2.8-0.3,5.1-0.7,5.1s-0.7-2.3-0.7-5.1s0.4-1.5,0.8-1.5S985.7,767.4,985.7,770.2z"/>
<path class="st3" d="M989.6,773.6c-2.5,1.3-4.7,2.2-4.8,1.8s1.7-1.7,4.2-3.1s1.5-0.4,1.7,0S992.1,772.2,989.6,773.6z"/>
<path class="st1" d="M941.9,760c0,0-6.1,8,2.8,20.1s16.4,22.3,13.4,29.9c0,0-13.5-22.5-24.6-22.8S929.8,773.5,941.9,760z"/>
<path class="st2" d="M941.9,760c-0.5,0.8-1,1.6-1.2,2.5c-10.8,12.6-16.5,24.4-6.2,24.7c9.6,0.3,21.2,17.5,23.9,21.8
	c-0.1,0.3-0.2,0.7-0.3,1c0,0-13.5-22.5-24.6-22.8S929.8,773.5,941.9,760z"/>
<path class="st3" d="M930.5,770.2c0,2.8,0.3,5.1,0.7,5.1s0.7-2.3,0.7-5.1s-0.4-1.5-0.8-1.5S930.5,767.4,930.5,770.2z"/>
<path class="st3" d="M926.6,773.6c2.5,1.3,4.6,2.2,4.8,1.8s-1.7-1.7-4.2-3.1s-1.5-0.4-1.7,0S924.1,772.2,926.6,773.6z"/>
<path class="st4" d="M932.4,809c0,0,17.2-0.5,22.3-4.2s26.4-8.1,27.7-2.2s25.8,29.4,6.4,29.5s-45-3-50.2-6.2S932.4,809,932.4,809z"
	/>
<path class="st5" d="M989.2,830.1c-19.4,0.2-45-3-50.2-6.2c-3.9-2.4-5.5-11-6-15h-0.6c0,0,1.1,13.8,6.2,17s30.8,6.3,50.2,6.2
	c5.6,0,7.5-2,7.4-5C995.5,828.9,993.4,830,989.2,830.1z"/>
<ellipse class="st0" cx="33.4" cy="789.3" rx="33.4" ry="5.7"/>
<path class="st4" d="M11,763.1c0,0,19.1-0.6,24.8-4.7s29.3-9,30.8-2.4s28.6,32.6,7.1,32.8s-50-3.4-55.8-6.8S11,763.1,11,763.1z"/>
<path class="st5" d="M74.1,786.5c-21.5,0.2-50-3.3-55.8-6.8c-4.4-2.7-6.1-12.2-6.7-16.6H11c0,0,1.2,15.4,7,18.9s34.2,7,55.8,6.8
	c6.2,0,8.4-2.3,8.2-5.5C81,785.2,78.7,786.5,74.1,786.5z"/>
<ellipse class="st1" cx="156.3" cy="810.5" rx="36.4" ry="6.2"/>
<path class="st1" d="M171.3,800.5c1.7-1.4,2.9-3.2,3.5-5.2c0.4-2.1-0.4-4.6-2.4-5.3c-2.2-0.8-4.6,0.7-6.4,2.3s-3.9,3.3-6.2,3
	c2.5-2.2,3.6-5.6,2.9-8.9c-0.1-0.7-0.4-1.3-0.8-1.8c-1.2-1.3-3.5-0.8-5,0.3c-4.7,3.3-6,9.7-6.1,15.5c-0.5-2.1-0.1-4.2-0.1-6.4
	s-0.6-4.5-2.4-5.6c-1.1-0.6-2.4-0.9-3.6-0.9c-2.1-0.1-4.5,0.1-5.9,1.7c-1.8,1.9-1.3,5.2,0.2,7.3s3.9,3.4,6.1,4.9
	c1.8,1,3.3,2.5,4.4,4.2c0.1,0.2,0.2,0.5,0.3,0.8h13.3C166.1,804.7,168.9,802.8,171.3,800.5z"/>
<polygon class="st1" points="412.5,469.5 406.3,467.7 406.6,472.2 420.4,477.5 417.9,470 "/>
<polygon class="st6" points="412.5,469.5 406.3,467.7 406.6,472.2 420.4,477.5 417.9,470 "/>
<path class="st1" d="M608.6,669.8c52.5-53.2,81.9-124.9,81.8-199.6c0-0.8,0-1.6,0-2.4H406.6L608.6,669.8z"/>
<path class="st6" d="M608.6,669.8c52.5-53.2,81.9-124.9,81.8-199.6c0-0.8,0-1.6,0-2.4H406.6L608.6,669.8z"/>
<path class="st1" d="M608.6,674.2c52.5-53.2,81.9-124.9,81.8-199.6c0-0.8,0-1.6,0-2.4H406.6L608.6,674.2z"/>
<path class="st7" d="M608.6,674.2c52.5-53.2,81.9-124.9,81.8-199.6c0-0.8,0-1.6,0-2.4H406.6L608.6,674.2z"/>
<linearGradient id="SVGID_1_" gradientUnits="userSpaceOnUse" x1="812.9778" y1="46.3901" x2="812.9778" y2="614.63" gradientTransform="matrix(1 0 0 -1 -99.58 804.5)">
	<stop  offset="0" style="stop-color:#808080;stop-opacity:0.25"/>
	<stop  offset="0.54" style="stop-color:#808080;stop-opacity:0.12"/>
	<stop  offset="1" style="stop-color:#808080;stop-opacity:0.1"/>
</linearGradient>
<path class="st8" d="M866.8,424.5l-4.4-39.5c0,0-7.9-35.6-9.1-53.4s-9.7-19.1-9.8-19.1l0,0c0,0-10.6-6.2-11.5-8.2
	c-0.7-1.6-6.6-4.9-9.3-6.4l-1.3-0.7c0,0-3.3-13.8-7.2-11.8l-0.3-0.9c-1-3-1.7-6-1.8-9.2c0-0.4,0-0.8,0-1.1c4.3-4.2,7.4-9.5,9-15.3
	c0.5-2,0.9-4.1,1-6.3c0-0.4,0-0.8,0-1.2c1.9-1.4,2.2-4.2,2.8-6.6c0.9-4.4,3.4-8.3,4.6-12.6c0.1-0.4,0.2-0.8,0.2-1.1
	c0-0.1,0-0.2,0-0.2c0.1-0.8,0.2-1.6,0.2-2.4c0-0.1,0-0.1,0-0.2c0-3.3-1-6.5-3.7-8.2c-0.6-0.3-1.2-0.7-1.7-1.2
	c-0.4-0.5-0.7-1-0.9-1.6l-2-4.8c-0.2-0.6-0.6-1.2-1-1.7c-0.8-0.6-1.7-1-2.7-1.3c-3-1.1-5-3.9-6.5-6.7s-2.8-5.8-5.1-8
	c-3.7-3.6-9.2-4.3-14.4-4.9c-0.4,1.6-0.5,3.3-0.4,4.9c-8.1-1.8-17-3.5-24.5,0.1c-1.3,0.6-2.4,1.6-3,2.9l0,0c0,0.2-0.1,0.3-0.1,0.5
	l0,0c0,0.2,0,0.4,0,0.6c0.1,0.4,0.1,0.9,0.1,1.3c-0.2,0.6-0.6,1.1-1.2,1.3c-2.5,1.1-5.4-0.3-8,0.6c-2.3,0.8-3.7,3.3-4.4,5.6
	s-1.2,4.9-2.8,6.8c-0.8,1-1.8,1.7-2.7,2.6c-1.5,1.7-2.2,4.1-1.9,6.4c0,0.1,0,0.1,0,0.2c0,0.3,0.1,0.6,0.2,0.9c0.1,0.3,0.2,0.7,0.4,1
	c0.1,0.3,0.3,0.6,0.5,0.9l0,0c1.1,1.9,2.8,3.5,3.2,5.7c0,0,0,0.1,0,0.1c0.5,2.8-1.3,5.4-1.7,8.1l0,0c0,0.2-0.1,0.4-0.1,0.6
	c0,0,0,0,0,0.1c0,0.2,0,0.5,0,0.7c0.2,4,3.8,6.6,6,9.6c0.6,0.8,1.7,3,2.8,3.9c0.1,0.4,0.1,0.9,0.2,1.3c0.6,3.2,1.7,6.4,3.3,9.3
	c3.8,7.1,10,12.7,17.5,15.6c0,0.4,0.1,0.8,0.1,1.2c0,0.7,0.1,1.5,0.1,2.2c0,0.4,0,0.7,0,1.1l-0.3-2.5c-1.2-0.3-2.5-0.3-3.8,0
	c-53.5-50.4-124.2-78.5-197.8-78.6v138.1c-8.3-2.5-15-2.8-14.5,3.1c0.5,6,7,12.1,14.5,17.1V494H718c0.2,3.3,0.5,6.3,1,7.1
	c1.5,1.9,1.4,24.4,1.4,24.4s0.8,4.1,1,4.9s2.5,19.9,2.5,20.8s2.1,7.5,1.9,10.1s3.4,11.2,3.4,11.2l0.6,15.7c0,0,5.8,8.8,6.2,9.4
	s0.2,11.6,6.6,16.9c1,1,1.7,2.2,2.1,3.5c0.5,1.9,16.6,28.9,21.6,37.3l-0.6,2.8l-4,18.7l-0.2,7.9c0,0-2.5,6.7-1.7,9.5
	c0.5,1.5,0.6,3,0.4,4.5c0,0-2.6,4.1-0.9,6.7s0.8,4.1-1.7,10.9c-1.1,3-0.2,4.8,1.2,5.9c0,0.3-0.1,0.7-0.1,1c-0.3,3-0.7,6.4-0.7,7.3
	s-0.3,5-0.4,8.6c0,2.8,0.2,5.4,0.9,5.8c1.7,0.9,11.1,2,11.3,5.2s3.8,7.9,11.3,7.9s20.6-2.6,23.8-2.2c0.5,0.1,0.8-0.3,1-0.9
	c0-0.1,0.1-0.2,0.1-0.3c1.1,1.3,2.7,2.1,4.4,2.3c11.3,2.1,25.1-3,27.7-8c0.3-0.6,0.6-1.3,0.8-2c1.3-5-0.8-11.3-0.8-11.3
	c-0.6-2.5-0.7-5.2-0.2-7.7c0.2-1.2,0.8-2.2,1.5-3.1c1.8-1.9,3.6-7.1,4.7-11.3c0.9-3.3,1.5-5.9,1.5-5.9s-1.2-1.8-3-4.3l0,0
	c-3.6-5.1-9.8-13-13.6-14.3c-0.2-0.4-0.3-0.8-0.4-1.2c-0.2-1.9-4.2-8-4.2-8s-5.5-8.8-5.5-9.5s-7.5-12.2-7.5-12.2s-2.9-6.3-4.8-9.7
	c0.2-0.6,0.4-1.4,0.7-2.3c2-7.9,4-25.9,3.6-28.3c-0.6-3-1-6.2,1.9-10.5s2.7-11.2,2.7-11.2s-0.2-21.2,1.9-25.5s7.9-38.8,7.7-39.5
	s1.5-5.5,1.5-5.5l0.3-13.6v-0.8c0,0,1.3-11.8,3-14.4c0.4-0.8,0.5-1.7,0.5-2.6h31.1c0-1.9-0.1-3.8-0.1-5.6h0.1
	c-0.1-13.1-1.1-26.2-3-39.2c2.9-3.5,6.5-6,6.6-6.8c0.5-2.3,1.2-4.6,2.1-6.8C868.3,432,866.8,424.5,866.8,424.5z M804,717.6
	c0,0,0.8-0.5,2.1-1.2c0.1,0.3,0.2,0.7,0.2,1c0.8,3.6,1.8,8.6,1.6,11c-0.4,3.9-1,10.1-1,10.1c-1.1,2.2-1.9,4.6-2.4,7
	c-0.6-2.5-1.2-4.4-1.2-4.4s-12.8-8.6-12.8-12.9c-0.1-2.2-0.4-4.3-0.9-6.4l0,0c-0.1-0.5-0.2-1.1-0.3-1.6c0.6,0.7,1,1.4,1.4,2.2
	c0,0,3.8-9.3,4.8-13c0.2-0.5,0.2-0.9,0.2-1.4c-0.3-1.3-0.4-2.6-0.2-3.8c0.9,1,1.6,2,1.4,2.7C796.2,708.6,804,717.6,804,717.6z"/>
<path class="st9" d="M805,756.8c-3.2-0.4-16,2.2-23.5,2.2s-11-4.6-11.2-7.8s-9.5-4.3-11.2-5.2c-0.7-0.4-0.9-3-0.9-5.8
	c0-3.6,0.4-7.6,0.4-8.5s0.4-4.3,0.7-7.3c0.3-2.6,0.6-4.8,0.6-4.8c8.8-10.6,28.7-2.8,28.7-2.8s0.8,3,1.5,6.2l0,0
	c0.5,2.1,0.8,4.2,0.9,6.4c0,4.3,12.7,12.8,12.7,12.8c0.9,2.9,1.6,5.9,2.1,8.8C806.3,754.3,806.4,757,805,756.8z"/>
<path class="st2" d="M805,756.8c-3.2-0.4-16,2.2-23.5,2.2s-11-4.7-11.2-7.8s-9.5-4.3-11.2-5.2c-0.7-0.4-0.9-3-0.9-5.8
	c3.6,1.1,8.5,2.8,10.2,4.7c2.8,3,3.5,6.3,5.4,6.7s3.7,3,12.7,0.7c5.6-1.4,13.8-1.4,19.2-1.2C806.3,754.3,806.4,757,805,756.8z"/>
<path class="st9" d="M839.1,726c-3.2,3.3-1.3,10.8-1.3,10.8s2.6,8.2,0,13.2s-16.2,10-27.4,8c-2.2-0.2-4.1-1.5-5.1-3.5
	c-2.7-5.4,1.9-14.8,1.9-14.8s0.6-6.1,0.9-10c0.2-2.4-0.8-7.3-1.6-11c-0.5-2.4-1-4.1-1-4.1s17-24.4,22.2-24.6c0.2,0,0.5,0,0.7,0.1
	c3.7,0.9,10.1,9.2,13.8,14.4c1.8,2.5,3,4.3,3,4.3S842.3,722.6,839.1,726z"/>
<path class="st2" d="M839.1,726c-3.2,3.3-1.3,10.8-1.3,10.8s2.6,8.2,0,13.2s-16.2,10.1-27.4,8c-2.2-0.2-4.1-1.5-5.1-3.5
	c3.2-0.7,8.3-1.5,16.2-2.5c19.2-2.2,14.1-14.9,14.1-14.9s-2.2-8.9,0.6-13.4c2-3.2,4.6-13.5,6-19.2c1.8,2.5,3,4.3,3,4.3
	S842.3,722.6,839.1,726z"/>
<path class="st2" d="M790.2,723.1c-2.7-3.7-10.6-10.7-26.5,3.1c-1.6-0.2-3-0.8-4.3-1.7c0.3-2.6,0.6-4.8,0.6-4.8
	c8.8-10.6,28.7-2.8,28.7-2.8S789.5,719.8,790.2,723.1z"/>
<path class="st10" d="M826.8,513.5v0.8l-0.4,13.5c0,0-1.7,4.7-1.5,5.4s-5.6,35-7.6,39.3s-1.9,25.3-1.9,25.3s0.2,6.9-2.6,11.2
	s-2.4,7.5-1.8,10.5c0.5,2.4-1.5,20.3-3.5,28.1c-0.2,1.2-0.7,2.4-1.3,3.5c-0.2,0.3-0.4,0.5-0.5,0.9c-2.7,6.9-9.6,49.6-9.6,49.6
	s-0.1,0.8-0.1,1.9c-0.1,2.1-0.2,5.2,0.1,5.9c0.1,0.5,0,1-0.2,1.4c-0.9,3.7-4.7,12.9-4.7,12.9s-7.3-16.2-27.6,1.3
	c0,0-7.8-0.8-5.4-7.5s3.3-8.2,1.7-10.8s0.9-6.7,0.9-6.7c0.2-1.5,0.1-3-0.4-4.5c-0.8-2.8,1.7-9.5,1.7-9.5l0.2-7.8l3.9-18.6l1.2-5.6
	l1.2-5.8l6.5-112.9l0.2-4.2l1.8-31.7l43.9-7.3l1.5,11.5l2.4,5.7L826.8,513.5z"/>
<path class="st2" d="M806,511.8l-26.9,17.7l1,15.5c0,0,2.8,25,2.8,27.5s-1.3,23.8-1.3,23.8s6.7,10,6,12.5s5.8,9.3,5.8,9.3l11.1,21.2
	c0,0,1.9,6.9,3,8.2c-0.2,1.2-0.7,2.4-1.3,3.5c-2.2,2.2-10,50.5-10,50.5s-0.1,0.8-0.1,1.9c-0.6-0.5-1-0.8-1-0.8s-5.4-8.9-5.4-9.9
	s-5.8-8.4-5.8-8.4l-13.2-25.1l-3.1-5.2l1.2-5.8l8.6-148.7l43.9-7.3l1.5,11.5l-40,10.2L806,511.8z"/>
<path class="st2" d="M824.6,513.5l-49.1,17.8l1.8-31.7l43.9-7.3l1.5,11.5l2.4,5.7C824.8,511.8,824.6,513.5,824.6,513.5z"/>
<path class="st2" d="M796.1,709.4c0.1,0.5,0,1-0.2,1.4c-0.7-1.2-1.1-2.1-1-2.5c0.6-1.7-4.5-5.6-4.5-5.6s-5.4-8.9-5.4-9.9
	s-5.8-8.4-5.8-8.4l-13-24.7l1.2-5.6l1.2-5.8l6.5-112.8l0.4,9.5c0,0,2.8,24.9,2.8,27.5s-1.3,23.8-1.3,23.8s6.7,10,6,12.5
	s5.8,9.3,5.8,9.3l11.2,21.2c0,0,2,7.6,3.2,8.4c1,1.3,1.9,2.7,2.5,4.2c-2.7,6.9-9.6,49.6-9.6,49.6s-0.1,0.8-0.1,1.9
	C795.8,705.5,795.7,708.7,796.1,709.4z"/>
<path class="st2" d="M833.7,699.1c0,0-8.4,15.1-14.7,15.5c-4.3,0.2-9.5,2.6-12.4,4.1c-0.5-2.4-1-4.1-1-4.1s17-24.4,22.2-24.6
	c0.2,0,0.5,0,0.7,0.1c0,0,0,0.1,0,0.1C828.7,692.1,833.7,699.1,833.7,699.1z"/>
<path class="st10" d="M833.7,698c0,0-8.4,15.1-14.7,15.5s-14.7,5.4-14.7,5.4s-7.6-8.9-7.1-10.6s-4.5-5.6-4.5-5.6s-5.4-8.9-5.4-9.9
	s-5.8-8.4-5.8-8.4l-13.2-25.1c0,0-22.2-37.2-22.7-39.5c-0.3-1.3-1.1-2.6-2.1-3.5c-6.3-5.2-6.1-16.2-6.5-16.8l-6.1-9.3l-0.6-15.6
	c0,0-3.5-8.6-3.3-11.2s-1.9-9.1-1.9-10.1s-2.2-19.9-2.4-20.7s-0.9-4.8-0.9-4.8s0.2-22.3-1.3-24.2c-0.8-1-1.1-6.3-1.1-10.8
	c-0.1-3.8,0-7.2,0-7.2L829,474.2c0,0,0.7,6.2,1.1,12.5c0.3,5.6,0.5,11.2-0.3,12.4c-1.7,2.6-3,14.3-3,14.3l-49.5,17.9l0.5,13.6
	c0,0,2.8,25,2.8,27.5s-1.3,23.8-1.3,23.8s6.7,10,6,12.5s5.8,9.3,5.8,9.3l11.2,21.2c0,0,2.1,7.6,3.2,8.4s6.2,11.8,6.2,11.8
	s7.4,11.4,7.4,12.1s5.4,9.5,5.4,9.5s3.9,6.1,4.1,8S833.7,698,833.7,698z"/>
<path class="st2" d="M766.7,604.2c0,0,9.1,10.4,13.8,10.6S766.7,604.2,766.7,604.2z"/>
<path class="st2" d="M801.5,706.6c0,0,27.5-14.2,24-7.6s-13.6,10-13.6,10L801.5,706.6z"/>
<path class="st2" d="M765.5,703.4c0,0,16.9,1.1,19.2,3.9C784.7,707.3,766.7,703.6,765.5,703.4z"/>
<path class="st2" d="M765.7,709.2c0,0,15.5,0.6,20.5,2.8C786.2,712,769.8,711.4,765.7,709.2z"/>
<path class="st11" d="M613.4,384.5l-4.9-2.2l-7.8-3.5c0,0-36.9-14.7-38-29.4s43,9.7,43,9.7c1.2,1.9,2.6,3.8,4.1,5.5
	c1.4,1.6,3,2.9,4.3,3.1C617.5,367.9,613.4,384.5,613.4,384.5z"/>
<path class="st11" d="M818.4,304.8l-12.1,14l-29.4-9.7l-7.3-5.8l4.6-6.1c1.6-2.1,2.1-5.3,2-8.6c0-0.7,0-1.5-0.1-2.2
	c-0.3-3.7-1-7.4-2.1-10.9c0,0,41.9-10.6,38.9-1.9c-0.6,1.8-0.8,3.7-0.7,5.6c0.2,3.1,0.8,6.2,1.8,9.1c0.9,2.6,1.9,5.1,3.2,7.6
	L818.4,304.8z"/>
<path class="st2" d="M813,273.5c-0.6,1.8-0.8,3.7-0.7,5.6c-9.5,9.4-23.7,12.2-36.1,7.2c-0.3-3.7-1-7.4-2.1-10.9
	C774.1,275.4,816,264.8,813,273.5z"/>
<path class="st11" d="M822.3,254.2c0,0.8,0,1.6-0.1,2.4c-1.3,18.5-17.3,32.4-35.8,31c-11.6-0.8-21.9-7.6-27.3-17.9
	c-1.5-2.9-2.6-6-3.2-9.2c-0.4-2.1-0.6-4.2-0.6-6.3c0-1.8,0.2-3.7,0.5-5.5c3-18.3,20.3-30.6,38.5-27.6c15.7,2.6,27.5,16,28,31.9
	C822.3,253.4,822.3,253.8,822.3,254.2z"/>
<path class="st2" d="M818.4,304.8l-12.1,14l-29.4-9.7l-7.3-5.8l4.6-6.1c1.6-2.1,2.1-5.3,2-8.6l1.3,10.3l0.3,0.3l1.9,1.9h2.4l4.7,6.3
	c0,0,6.7-5.4,7.3-4.1s9.7-2.2,9.7-2.2h0.3c8.3-0.4,9.7-12.6,9.7-12.6s0.1-0.1,0.2-0.1c0.9,2.6,1.9,5.1,3.2,7.6L818.4,304.8z"/>
<path class="st2" d="M830.1,486.7c-0.2,0.8-0.4,1.6-0.7,2.4c-7.3,23.1-59.6,23.6-59.6,23.6l-1.5-14.3l-5,9.7c0,0-32.4-8.9-44-15.3
	c-0.1-3.8,0-7.2,0-7.2L829,474.2C829,474.2,829.7,480.5,830.1,486.7z"/>
<path class="st2" d="M613.4,384.5l-4.9-2.2c1.1-5.3,1.3-15.9,1.4-17.8c1.4,1.6,3,2.9,4.3,3.1C617.5,367.9,613.4,384.5,613.4,384.5z"
	/>
<path class="st9" d="M828.5,434.4c0,0,8.2,29.4,0.9,52.5c-7.3,23.1-59.6,23.6-59.6,23.6l-1.5-14.3l-5,9.7c0,0-39.1-10.8-46.7-17.1
	s-3.7-15.8-3.7-15.8s2.6-12.3,4.8-14.9s2.6-11.7,1.9-13s2.6-13.6,3.7-15.5s-0.2-51.6-0.2-51.6s-16.6,7.4-17.5,9.7s-20.5,13-20.5,13
	s-18.4,2.2-21.8,2.2s-21.8-2.2-21.8-2.2s-5-0.2-6.5-1.3c-1.5-0.9-3.1-1.6-4.8-2c0,0-5.2-1.1-6.7-3.2s-14-8.9-14-8.9
	c2.4-1.5,2.6-21,2.6-21l23.6,5.8c0,0,1.5-3.2,3.7-1.9s15.8,2.4,15.8,2.4s11.4-2.2,11.9-1.3s2.2,0.8,2.2,0.8s2.2-0.2,2.2-0.9
	s2,0.2,2,0.2l3.7,0.6c0,0-0.6-4.8,1.1-5.2c1-0.2,1.7-1.1,1.9-2c0,0,5-6.7,7.5-6.7s4.1-6.7,4.1-6.7l8.9-9.1c0,0-1.1-4.7,0-4.9
	s1.3-2.2,1.3-2.2s0.4-4.1,2.4-5s3.2-6.3,3.2-6.3s9.5-10.6,10.2-14.3s4.7-4.5,4.7-4.5c2.1-1.4,4.4-2.4,6.9-3
	c3.2-0.6,11.5-1.5,11.5-1.5s15.3-1.3,16.8-3s4.1-1.5,5.8-1.5c0.4,0,0.7-0.2,1-0.4c1.5-0.9,3.3-3.6,5.1-5.2c2.2-2,6.1-1.1,6.1-1.1
	l1.7,12.9l0.3,0.3l1.9,1.9h2.4l4.7,6.3c0,0,6.7-5.4,7.3-4.1s9.7-2.2,9.7-2.2h0.3c8.3-0.4,9.7-12.6,9.7-12.6
	c4.1-3.5,7.6,11.4,7.6,11.4l1.3,0.7c2.6,1.5,8.4,4.8,9.1,6.4c0.9,2,11.4,8.2,11.4,8.2L828.5,434.4z"/>
<path class="st11" d="M833.3,479.1l-5.5,4.4l-6.2,5c0,0-11.5,27-27.4,19.4s21.2-35.9,21.2-35.9l5.1-2.5l5.7-2.7L833.3,479.1z"/>
<path class="st2" d="M776.8,302.5c-5.8,2.4-13,8.1-13,8.1l-0.3-14.9c1.5-1,3.3-3.6,5.1-5.2c2.2-2,6.1-1.1,6.1-1.1l1.7,12.8
	L776.8,302.5z"/>
<path class="st12" d="M778,300.3c-5.8,2.4-13,8.1-13,8.1l-0.2-14.9c1.5-0.9,3.3-3.6,5.1-5.2c2.2-2,6.1-1.1,6.1-1.1l1.7,12.9
	L778,300.3z"/>
<path class="st2" d="M822.9,305c-2.9,7.7-6.4,16.1-7.1,12.9c-0.8-3.9-7.5-9.3-11.6-12.3c8.3-0.3,9.7-12.6,9.7-12.6
	c4.1-3.5,7.6,11.4,7.6,11.4L822.9,305z"/>
<path class="st12" d="M822.9,301.6c-2.9,7.7-6.4,16.1-7.1,12.9c-0.8-3.9-7.5-9.3-11.6-12.3c8.3-0.4,9.7-12.6,9.7-12.6
	c4.1-3.5,7.6,11.4,7.6,11.4L822.9,301.6z"/>
<path class="st2" d="M784.9,595.6c0,0,21.2-3,20.3,1.5S784.9,595.6,784.9,595.6z"/>
<path class="st2" d="M750.6,522.5c0,0,8.4-4.5,15.8-2.6L750.6,522.5z"/>
<path class="st2" d="M737.1,510.3c0,0,13.4-2,18.4,0.2L737.1,510.3z"/>
<path class="st2" d="M795.7,541.1c0,0-11.7,12.5-11,15.8L795.7,541.1z"/>
<path class="st2" d="M681.2,373.7c0,0-1.9,6.7,9.5,9.5L681.2,373.7z"/>
<path class="st2" d="M677.9,385.2c0,0,14,12.5,7.5,12.9S677.9,385.2,677.9,385.2z"/>
<path class="st2" d="M709,335.2c0,0,17.1,11.9,16,14.7S709,335.2,709,335.2z"/>
<path class="st2" d="M833.3,479.1l-5.5,4.4c-1.2-3.9-3.5-10.5-7.2-14l5.7-2.7L833.3,479.1z"/>
<path class="st9" d="M835.9,320.8l7.5-4.6c0,0,8.6,1.3,9.7,19s8.9,53.1,8.9,53.1l4.3,39.3c0,0,1.5,7.5,0.2,11.2
	c-0.9,2.2-1.5,4.4-2,6.7c-0.2,1.3-10.4,7.6-10.2,15.8s-13,15.8-13,15.8s-8.6,5-11.4,8.6c0,0-3.2-14.9-10-18.6s14.5-33.3,14.5-33.3
	L835.9,320.8z"/>
<path class="st2" d="M823,434.1c0,0-22.3,9.3-20.5,12.3S823,434.1,823,434.1z"/>
<path class="st2" d="M823,446.1c0,0-9.3,4.1-8.5,5.4S823,446.1,823,446.1z"/>
<path class="st2" d="M817.8,453.9c0,0-9.3,4.1-8.5,5.4S817.8,453.9,817.8,453.9z"/>
<path class="st1" d="M577.1,214.6v282h283.8C859.6,340.8,733.1,214.9,577.1,214.6z"/>
<path class="st2" d="M577.1,214.6v282h283.8C859.6,340.8,733.1,214.9,577.1,214.6z"/>
<path class="st1" d="M577.1,209v282h283.8C859.6,335.2,733.1,209.3,577.1,209z"/>
<path class="st11" d="M795.8,498.9c0-1.5,0.4-3.1,1.3-4.3c0.9-0.9,2-1.5,3.2-1.8c1.1-0.3,2.1-0.7,3.2-1c0.8-0.3,1.7-0.4,2.6-0.4
	c1.8,0.1,3.3,1.2,4.8,2.2c0.3,0.2,0.5,0.4,0.7,0.7c0.3,0.7-0.4,1.5-1,2c-2.2,2-4.6,3.7-7.1,5.2c-1.8,1-4.1,2.1-6.2,2.2
	C794.6,503.8,795.6,500.8,795.8,498.9z"/>
<path class="st2" d="M822.3,254.2c0,0.8,0,1.6-0.1,2.4c-0.1,0.1-0.3,0.2-0.4,0.3c-0.6,0.2-1.1,0.4-1.7,0.7c-1.6,1.1-1.3,3.5-1.1,5.5
	c0.2,2.8-0.4,5.7-1.7,8.2c-1.3-0.1-2.4-1.1-2.6-2.4c-0.2-1.3-0.2-2.6-0.2-3.8c-0.2-3.4-2-6.5-3.2-9.7c-2.2-6.2-1.7-13-3.2-19.4
	c-0.4-1.9-1.1-3.9-2.7-5c-2.1-1.5-5.1-0.8-7.3,0.4s-4.3,2.9-6.8,3.7c-3.8,1.1-7.9-0.2-11.7-1.4s-8.1-2.2-11.6-0.4
	c-3.7,1.9-5.4,6.3-6.5,10.3c-0.4,1.1-0.6,2.3-0.5,3.4c0.1,1,0.5,2,0.4,3.1c0,2.2-1.9,4-2.7,6.1c-0.5,1.3-0.3,4.5-2.2,4.5
	c-0.2,0-0.4-0.1-0.6-0.2c-0.4-2.1-0.6-4.2-0.6-6.3c0-1.8,0.2-3.7,0.5-5.5c3-18.3,20.3-30.6,38.5-27.6c15.7,2.6,27.5,16,28,31.9
	C822.3,253.4,822.3,253.8,822.3,254.2z"/>
<path class="st13" d="M747,245.8c-0.1-3.2,2.3-6.2,1.8-9.4c-0.4-2.5-2.6-4.3-3.7-6.6c-1.2-2.8-0.7-6.1,1.3-8.4
	c0.8-0.9,1.8-1.6,2.6-2.6c1.6-1.9,2-4.4,2.8-6.8s2-4.8,4.3-5.6c2.5-0.9,5.5,0.5,7.9-0.6c0.6-0.2,1.1-0.7,1.2-1.3
	c0-0.4,0-0.9-0.1-1.3c-0.2-1.8,1.5-3.2,3.1-3.9c7.4-3.6,16.1-1.9,24.2-0.1c-0.1-1.6,0-3.3,0.3-4.9c5.1,0.6,10.5,1.3,14.2,4.8
	c2.3,2.2,3.5,5.2,5,7.9s3.5,5.5,6.4,6.7c1,0.2,1.9,0.7,2.6,1.3c0.4,0.5,0.8,1.1,1,1.7l1.9,4.7c0.2,0.6,0.5,1.1,0.9,1.6
	c0.5,0.5,1.1,0.9,1.7,1.2c3.7,2.4,4.3,7.8,3.1,12.1s-3.6,8.2-4.5,12.5c-0.5,2.6-0.8,5.7-3.2,6.9c-0.6,0.2-1.1,0.5-1.7,0.7
	c-1.6,1.1-1.3,3.5-1.1,5.5c0.2,2.8-0.4,5.7-1.7,8.2c-1.3-0.1-2.4-1.1-2.6-2.4c-0.2-1.3-0.2-2.6-0.2-3.8c-0.2-3.4-2-6.5-3.2-9.7
	c-2.2-6.2-1.7-13-3.2-19.4c-0.4-1.9-1.2-3.9-2.8-5c-2.1-1.5-5.1-0.8-7.3,0.4s-4.3,2.9-6.8,3.7c-3.8,1.1-7.9-0.2-11.7-1.4
	s-8.1-2.2-11.6-0.4c-3.7,1.9-5.4,6.3-6.5,10.3c-0.4,1.1-0.6,2.3-0.5,3.4c0.1,1,0.5,2.1,0.4,3.1c0,2.2-1.9,4-2.7,6.1
	c-0.5,1.3-0.3,4.5-2.2,4.5c-1.4,0-2.9-3.3-3.6-4.2C750.7,252.4,747.1,249.8,747,245.8z"/>
<g class="st14">
	<path d="M748.7,234.1c-0.4-2.5-2.6-4.3-3.7-6.6c-0.3-0.7-0.5-1.3-0.6-2.1c-0.2,1.5,0,2.9,0.6,4.3c1,2.3,3.2,4.1,3.6,6.5
		C748.8,235.6,748.9,234.8,748.7,234.1z"/>
	<path d="M765.2,202.3c0-0.1,0-0.1,0-0.2c-0.1,0.2-0.1,0.3-0.1,0.5C765.1,202.5,765.2,202.4,765.2,202.3z"/>
	<path d="M792.3,196.9c0-0.1,0-0.2,0-0.2C792.3,196.8,792.3,196.9,792.3,196.9L792.3,196.9z"/>
	<path d="M829.5,234c-1.2,4.3-3.6,8.2-4.5,12.5c-0.5,2.6-0.8,5.7-3.2,6.9c-0.6,0.2-1.1,0.5-1.7,0.7c-1.3,0.9-1.3,2.7-1.2,4.5
		c0-0.9,0.5-1.7,1.2-2.2c0.5-0.3,1.1-0.5,1.7-0.7c2.3-1.2,2.7-4.3,3.2-6.9c0.9-4.4,3.3-8.2,4.5-12.5c0.5-1.7,0.6-3.4,0.5-5.2
		C829.9,232.1,829.8,233.1,829.5,234z"/>
	<path d="M817.3,267.9c-1.3-0.1-2.4-1.1-2.6-2.4c-0.2-1.3-0.2-2.6-0.2-3.8c-0.2-3.4-2-6.5-3.2-9.7c-2.2-6.2-1.7-13-3.2-19.4
		c-0.4-1.9-1.2-3.9-2.8-5c-2.1-1.5-5.1-0.8-7.3,0.4s-4.3,2.9-6.8,3.7c-3.8,1.1-7.9-0.2-11.7-1.4s-8.1-2.2-11.6-0.4
		c-3.7,1.9-5.4,6.3-6.5,10.3c-0.4,1.1-0.6,2.3-0.5,3.5c0,0.2,0.1,0.5,0.1,0.7c0.1-0.6,0.3-1.3,0.5-1.9c1.1-4,2.8-8.4,6.5-10.3
		c3.5-1.8,7.8-0.8,11.6,0.4s7.8,2.6,11.7,1.4c2.5-0.8,4.5-2.5,6.8-3.7s5.2-1.8,7.3-0.4c1.6,1.1,2.3,3.1,2.8,5
		c1.5,6.4,1,13.2,3.2,19.4c1.2,3.2,3,6.3,3.2,9.7c-0.1,1.3,0,2.6,0.2,3.8c0.2,1.3,1.3,2.3,2.6,2.4c1.3-2.5,1.9-5.3,1.7-8.1
		C818.9,264.1,818.3,266.1,817.3,267.9z"/>
	<path d="M758.8,252.8c-0.5,1.3-0.3,4.5-2.2,4.5c-1.4,0-2.9-3.2-3.6-4.2c-2-2.7-5.3-5.2-5.8-8.7c-0.1,0.5-0.1,0.9-0.1,1.4
		c0.2,4,3.8,6.6,5.9,9.5c0.7,1,2.2,4.2,3.6,4.2c1.9,0,1.8-3.2,2.2-4.5c0.7-2.1,2.6-3.9,2.7-6.1c0-0.4,0-0.9-0.1-1.3
		C760.8,249.4,759.4,251,758.8,252.8z"/>
</g>
<rect x="99.8" y="446.6" class="st1" width="3.4" height="3.4"/>
<rect x="99.8" y="446.6" class="st15" width="3.4" height="3.4"/>
<rect x="384.5" y="164.9" class="st1" width="3.3" height="3.8"/>
<rect x="384.5" y="164.9" class="st15" width="3.3" height="3.8"/>
<path class="st16" d="M387.8,450L387.8,450V168h-0.6C230.9,168,104,294.1,102.7,450.1L387.8,450z"/>
<path class="st1" d="M387.8,450L387.8,450V168h-0.6C230.9,168,104,294.1,102.7,450.1L387.8,450z"/>
<path class="st15" d="M387.8,450L387.8,450V168h-0.6C230.9,168,104,294.1,102.7,450.1L387.8,450z"/>
<path class="st1" d="M384.8,447L384.8,447V165h-0.6C227.9,165,101,291.1,99.7,447.1L384.8,447z"/>
<path class="st17" d="M384.8,447L384.8,447V165h-0.6C227.9,165,101,291.1,99.7,447.1L384.8,447z"/>
<polygon class="st1" points="594.5,677.4 598.7,680 598.7,685 593,684.1 "/>
<polygon class="st2" points="594.5,677.4 598.7,680 598.7,685 593,684.1 "/>
<polygon class="st1" points="194.9,679.4 193.4,679.8 193.4,684.8 198.7,683.7 197.4,678.8 "/>
<polygon class="st2" points="194.9,679.4 193.4,679.8 193.4,684.8 198.7,683.7 197.4,678.8 "/>
<path class="st1" d="M399.7,486L193.3,684.8c110.1,112,290.2,113.5,402.2,3.4c1.1-1.1,2.2-2.1,3.2-3.2L399.7,486z"/>
<path class="st1" d="M399.7,481L193.3,679.8c110.1,112,290.2,113.5,402.2,3.4c1.1-1.1,2.2-2.1,3.2-3.2L399.7,481z"/>
<path class="st2" d="M399.7,481L193.3,679.8c110.1,112,290.2,113.5,402.2,3.4c1.1-1.1,2.2-2.1,3.2-3.2L399.7,481z"/>
<path class="st1" d="M399.7,486L193.3,684.8c110.1,112,290.2,113.5,402.2,3.4c1.1-1.1,2.2-2.1,3.2-3.2L399.7,486z"/>
<polygon class="st18" points="383,475.1 389.9,470.4 390.9,472.4 383,478.1 "/>
<polygon class="st2" points="383,475.1 389.9,470.4 390.9,472.4 383,478.1 "/>
<polygon class="st19" points="378.1,468 385.4,465.4 386.4,467.4 374,471.5 "/>
<polygon class="st2" points="378.1,468 385.4,465.4 386.4,467.4 374,471.5 "/>
<polygon class="st20" points="377.2,459.3 384.9,458.9 384.9,460.9 372,462.2 373.1,459.6 "/>
<polygon class="st2" points="377.2,459.3 384.9,458.9 384.9,460.9 372,462.2 373.1,459.6 "/>
<path class="st20" d="M384.9,458.9L107.5,522c-4.3-20-6.5-40.3-6.5-60.8c0-0.8,0-1.6,0-2.4L384.9,458.9z"/>
<path class="st2" d="M384.9,458.9L107.5,522c-4.3-20-6.5-40.3-6.5-60.8c0-0.8,0-1.6,0-2.4L384.9,458.9z"/>
<path class="st20" d="M384.9,460.9L107.5,524c-4.3-20-6.5-40.3-6.5-60.8c0-0.8,0-1.6,0-2.4L384.9,460.9z"/>
<path class="st19" d="M108,528.5c5.8,26.9,15.6,52.7,28.9,76.8l248.4-139.9L108,528.5z"/>
<path class="st2" d="M108,528.5c5.8,26.9,15.6,52.7,28.9,76.8l248.4-139.9L108,528.5z"/>
<path class="st19" d="M109,530.5c5.8,26.9,15.6,52.7,28.9,76.8l248.4-139.9L109,530.5z"/>
<path class="st18" d="M389.3,470.4l-248,139.7l0.1,0.2c12.6,22.7,28.2,43.6,46.4,62.1l202-202H389.3z"/>
<path class="st2" d="M389.3,470.4l-248,139.7l0.1,0.2c12.6,22.7,28.2,43.6,46.4,62.1l202-202H389.3z"/>
<path class="st18" d="M390.3,472.4l-248,139.7l0.1,0.2c12.6,22.7,28.2,43.6,46.4,62.1l202-202H390.3z"/>
</svg>
